<?xml version="1.0" encoding="iso-8859-1"?>
<!-- Generator: Adobe Illustrator 19.0.0, SVG Export Plug-In . SVG Version: 6.00 Build 0)  -->
<svg version="1.1" id="Capa_1" xmlns="http://www.w3.org/2000/svg" xmlns:xlink="http://www.w3.org/1999/xlink" x="0px" y="0px"
	 viewBox="0 0 379.2 379.2" style="enable-background:new 0 0 379.2 379.2;" xml:space="preserve">
<g>
	<g>
		<path d="M341.6,274.4c-1.6-1.6-4-4-6.4-4c-23.2-4.8-45.6-35.2-45.6-84.8c0-44.8,19.2-80,45.6-84.8c2.4-0.8,4-1.6,5.6-4
			c0.8-1.6,1.6-4,0.8-6.4L316,6.4c-0.8-2.4-3.2-4.8-5.6-5.6c-3.2-0.8-5.6,0-8,2.4c-11.2,13.6-27.2,32-53.6,32.8
			c-26.4,0.8-44-9.6-52-30.4c-0.8-3.2-4-5.6-7.2-5.6s-7.2,3.2-8,6.4c-8,20.8-25.6,32-52,30.4C103.2,36,87.2,17.6,76,4
			c-1.6-2.4-4.8-3.2-8-2.4S63.2,4,62.4,7.2l-25.6,84c-0.8,2.4,0,4.8,0.8,6.4c0.8,1.6,3.2,3.2,5.6,4c27.2,4.8,45.6,40,45.6,84.8
			c0,49.6-23.2,80-45.6,84.8c-2.4,0.8-4,1.6-5.6,4c-1.6,2.4-1.6,3.2-0.8,5.6l26.4,72c0.8,2.4,3.2,4,5.6,4.8s4.8,0,7.2-1.6
			c21.6-17.6,40-24.8,59.2-22.4c26.4,3.2,44,18.4,45.6,38.4c0,4,4,7.2,8,7.2s8-3.2,8-7.2c1.6-19.2,20.8-35.2,47.2-38.4
			c19.2-2.4,37.6,4.8,59.2,22.4c2.4,1.6,4.8,2.4,7.2,1.6s4.8-2.4,5.6-4.8l26.4-72C343.2,278.4,343.2,276,341.6,274.4z M303.2,337.6
			c-15.2-11.2-36.8-22.4-62.4-19.2c-23.2,2.4-43.2,13.6-53.6,29.6c-8.8-14.4-26.4-26.4-52-29.6c-3.2,0-5.6-0.8-8-0.8
			c-21.6,0-40,9.6-53.6,20l-20-54.4c29.6-12,49.6-50.4,49.6-97.6c0-48-20-87.2-50.4-98.4L72,24.8c12,12.8,30.4,26.4,56,28
			c26.4,1.6,47.2-8,60-26.4c12.8,18.4,33.6,27.2,60,26.4c25.6-0.8,43.2-15.2,56-28l19.2,62.4c-29.6,11.2-50.4,49.6-50.4,98.4
			c0,47.2,20,85.6,49.6,97.6L303.2,337.6z"/>
	</g>
</g>
<g>
	<g>
		<path d="M270.4,243.2c-0.8-1.6-2.4-3.2-4.8-3.2c-10.4-2.4-20.8-21.6-20.8-52.8s10.4-50.4,20.8-52c2.4-0.8,4-1.6,4.8-3.2
			c0.8-1.6,1.6-4,0.8-6.4l-12.8-55.2c-0.8-3.2-3.2-5.6-6.4-5.6c-3.2-0.8-6.4,0.8-8,3.2c-5.6,8-12.8,19.2-24.8,20S200,83.2,196,70.4
			c-0.8-3.2-4-5.6-8-5.6s-6.4,2.4-8,5.6c-4,12.8-11.2,18.4-23.2,17.6S137.6,76,132,68c-1.6-2.4-4.8-4-8-3.2
			c-3.2,0.8-5.6,3.2-6.4,5.6l-12.8,54.4c-0.8,2.4,0,4,0.8,6.4c0.8,1.6,3.2,3.2,4.8,3.2c10.4,2.4,20.8,21.6,20.8,52
			c0,30.4-11.2,49.6-20.8,52.8c-2.4,0.8-4,1.6-4.8,4c-0.8,1.6-1.6,4-0.8,6.4l13.6,47.2c0.8,2.4,3.2,4.8,5.6,5.6c2.4,0.8,5.6,0,8-2.4
			c10.4-10.4,18.4-14.4,27.2-13.6c14.4,2.4,20,13.6,20,22.4c0,4,4,7.2,8,7.2s8-3.2,8-7.2c0.8-9.6,7.2-20,21.6-22.4
			c8-1.6,16.8,3.2,27.2,13.6c1.6,2.4,4.8,3.2,8,2.4c2.4-0.8,4.8-2.4,5.6-5.6l13.6-47.2C272,247.2,271.2,245.6,270.4,243.2z
			 M246.4,280c-8-6.4-18.4-11.2-30.4-9.6c-11.2,1.6-20.8,7.2-27.2,15.2c-6.4-8-15.2-13.6-26.4-15.2c-1.6,0-3.2,0-4.8,0
			c-10.4,0-18.4,4-25.6,9.6l-8-28c15.2-9.6,25.6-33.6,25.6-64.8s-10.4-56-25.6-64.8l8-32c6.4,6.4,15.2,12.8,26.4,13.6
			c13.6,0.8,24-4,31.2-13.6c7.2,9.6,18.4,14.4,31.2,13.6c11.2-0.8,20-6.4,26.4-13.6l8,32c-16,8.8-25.6,33.6-25.6,64.8
			c0,30.4,9.6,55.2,25.6,64.8L246.4,280z"/>
	</g>
</g>
<g>
</g>
<g>
</g>
<g>
</g>
<g>
</g>
<g>
</g>
<g>
</g>
<g>
</g>
<g>
</g>
<g>
</g>
<g>
</g>
<g>
</g>
<g>
</g>
<g>
</g>
<g>
</g>
<g>
</g>
</svg>
